REM DIRINDEX 1\2\4,1\2\5,1\2\6,1\3\7,1\3\8,1\3\9,1\3\10
REM DIRNAME cjc057,folder01,folder02,folder03,folder04,folder05,folder06,folder07,folder08,folder09
TITLE ""
FILE "a_180.mp3" MP3
  TRACK 01 AUDIO
    TITLE "0:"
    INDEX 01 00:00:00
  TRACK 02 AUDIO
    TITLE "4:cjc057_03763"
    INDEX 01 00:00:15
  TRACK 03 AUDIO
    TITLE "0:"
    INDEX 01 00:01:38
  TRACK 04 AUDIO
    TITLE "5:cjc057_03764"
    INDEX 01 00:01:68
  TRACK 05 AUDIO
    TITLE "0:"
    INDEX 01 00:04:42
  TRACK 06 AUDIO
    TITLE "4:cjc057_03765"
    INDEX 01 00:05:48
  TRACK 07 AUDIO
    TITLE "0:"
    INDEX 01 00:07:05
  TRACK 08 AUDIO
    TITLE "5:cjc057_03766"
    INDEX 01 00:07:35
  TRACK 09 AUDIO
    TITLE "0:"
    INDEX 01 00:09:61
  TRACK 10 AUDIO
    TITLE "4:cjc057_03767"
    INDEX 01 00:10:65
  TRACK 11 AUDIO
    TITLE "0:"
    INDEX 01 00:12:22
  TRACK 12 AUDIO
    TITLE "5:cjc057_03768"
    INDEX 01 00:12:52
  TRACK 13 AUDIO
    TITLE "0:"
    INDEX 01 00:14:21
  TRACK 14 AUDIO
    TITLE "4:cjc057_03769"
    INDEX 01 00:15:27
  TRACK 15 AUDIO
    TITLE "0:"
    INDEX 01 00:16:65
  TRACK 16 AUDIO
    TITLE "5:cjc057_03770"
    INDEX 01 00:17:20
  TRACK 17 AUDIO
    TITLE "0:"
    INDEX 01 00:20:47
  TRACK 18 AUDIO
    TITLE "4:cjc057_03771"
    INDEX 01 00:21:51
  TRACK 19 AUDIO
    TITLE "0:"
    INDEX 01 00:22:66
  TRACK 20 AUDIO
    TITLE "5:cjc057_03772"
    INDEX 01 00:23:18
  TRACK 21 AUDIO
    TITLE "0:"
    INDEX 01 00:25:39
  TRACK 22 AUDIO
    TITLE "4:cjc057_03773"
    INDEX 01 00:26:44
  TRACK 23 AUDIO
    TITLE "0:"
    INDEX 01 00:27:59
  TRACK 24 AUDIO
    TITLE "5:cjc057_03774"
    INDEX 01 00:28:13
  TRACK 25 AUDIO
    TITLE "0:"
    INDEX 01 00:31:08
  TRACK 26 AUDIO
    TITLE "4:cjc057_03775"
    INDEX 01 00:32:09
  TRACK 27 AUDIO
    TITLE "0:"
    INDEX 01 00:33:34
  TRACK 28 AUDIO
    TITLE "5:cjc057_03776"
    INDEX 01 00:33:64
  TRACK 29 AUDIO
    TITLE "0:"
    INDEX 01 00:36:27
  TRACK 30 AUDIO
    TITLE "4:cjc057_03777"
    INDEX 01 00:37:34
  TRACK 31 AUDIO
    TITLE "0:"
    INDEX 01 00:39:00
  TRACK 32 AUDIO
    TITLE "5:cjc057_03778"
    INDEX 01 00:39:27
  TRACK 33 AUDIO
    TITLE "0:"
    INDEX 01 00:42:33
  TRACK 34 AUDIO
    TITLE "4:cjc057_03779"
    INDEX 01 00:43:35
  TRACK 35 AUDIO
    TITLE "0:"
    INDEX 01 00:44:50
  TRACK 36 AUDIO
    TITLE "5:cjc057_03780"
    INDEX 01 00:45:04
  TRACK 37 AUDIO
    TITLE "0:"
    INDEX 01 00:46:39
  TRACK 38 AUDIO
    TITLE "4:cjc057_03781"
    INDEX 01 00:47:42
  TRACK 39 AUDIO
    TITLE "0:"
    INDEX 01 00:48:65
  TRACK 40 AUDIO
    TITLE "5:cjc057_03782"
    INDEX 01 00:49:18
  TRACK 41 AUDIO
    TITLE "0:"
    INDEX 01 00:52:00
  TRACK 42 AUDIO
    TITLE "4:cjc057_03783"
    INDEX 01 00:53:04
  TRACK 43 AUDIO
    TITLE "0:"
    INDEX 01 00:54:29
  TRACK 44 AUDIO
    TITLE "5:cjc057_03784"
    INDEX 01 00:54:56
  TRACK 45 AUDIO
    TITLE "0:"
    INDEX 01 00:57:17
  TRACK 46 AUDIO
    TITLE "4:cjc057_03785"
    INDEX 01 00:58:20
  TRACK 47 AUDIO
    TITLE "0:"
    INDEX 01 00:59:43
  TRACK 48 AUDIO
    TITLE "5:cjc057_03786"
    INDEX 01 00:59:73
  TRACK 49 AUDIO
    TITLE "0:"
    INDEX 01 01:01:25
  TRACK 50 AUDIO
    TITLE "4:cjc057_03787"
    INDEX 01 01:02:30
  TRACK 51 AUDIO
    TITLE "0:"
    INDEX 01 01:03:63
  TRACK 52 AUDIO
    TITLE "5:cjc057_03788"
    INDEX 01 01:04:15
  TRACK 53 AUDIO
    TITLE "0:"
    INDEX 01 01:05:58
  TRACK 54 AUDIO
    TITLE "4:cjc057_03789"
    INDEX 01 01:06:61
  TRACK 55 AUDIO
    TITLE "0:"
    INDEX 01 01:08:07
  TRACK 56 AUDIO
    TITLE "5:cjc057_03790"
    INDEX 01 01:08:36
  TRACK 57 AUDIO
    TITLE "0:"
    INDEX 01 01:11:02
  TRACK 58 AUDIO
    TITLE "4:cjc057_03791"
    INDEX 01 01:12:05
  TRACK 59 AUDIO
    TITLE "0:"
    INDEX 01 01:13:44
  TRACK 60 AUDIO
    TITLE "5:cjc057_03792"
    INDEX 01 01:13:73
  TRACK 61 AUDIO
    TITLE "0:"
    INDEX 01 01:16:65
  TRACK 62 AUDIO
    TITLE "4:cjc057_03793"
    INDEX 01 01:17:65
  TRACK 63 AUDIO
    TITLE "0:"
    INDEX 01 01:19:32
  TRACK 64 AUDIO
    TITLE "5:cjc057_03794"
    INDEX 01 01:19:60
  TRACK 65 AUDIO
    TITLE "0:"
    INDEX 01 01:21:14
  TRACK 66 AUDIO
    TITLE "4:cjc057_03795"
    INDEX 01 01:22:19
  TRACK 67 AUDIO
    TITLE "0:"
    INDEX 01 01:23:48
  TRACK 68 AUDIO
    TITLE "5:cjc057_03796"
    INDEX 01 01:24:02
  TRACK 69 AUDIO
    TITLE "0:"
    INDEX 01 01:25:51
  TRACK 70 AUDIO
    TITLE "4:cjc057_03797"
    INDEX 01 01:26:54
  TRACK 71 AUDIO
    TITLE "0:"
    INDEX 01 01:27:67
  TRACK 72 AUDIO
    TITLE "5:cjc057_03798"
    INDEX 01 01:28:22
  TRACK 73 AUDIO
    TITLE "0:"
    INDEX 01 01:30:60
  TRACK 74 AUDIO
    TITLE "4:cjc057_03799"
    INDEX 01 01:31:65
  TRACK 75 AUDIO
    TITLE "0:"
    INDEX 01 01:33:15
  TRACK 76 AUDIO
    TITLE "5:cjc057_03800"
    INDEX 01 01:33:42
  TRACK 77 AUDIO
    TITLE "0:"
    INDEX 01 01:36:11
  TRACK 78 AUDIO
    TITLE "4:cjc057_03801"
    INDEX 01 01:37:13
  TRACK 79 AUDIO
    TITLE "0:"
    INDEX 01 01:38:30
  TRACK 80 AUDIO
    TITLE "5:cjc057_03802"
    INDEX 01 01:38:59
  TRACK 81 AUDIO
    TITLE "0:"
    INDEX 01 01:39:74
